<svg viewBox="0 0 100 70" xmlns="http://www.w3.org/2000/svg" fill="none">
  <!-- Body -->
  <path d="M50 35 Q60 28 72 30 Q80 32 82 38 Q80 45 70 46 Q60 47 50 42Z" fill="#F8EDE3" stroke="#C9A96E" stroke-width="1"/>
  <!-- Head -->
  <circle cx="80" cy="30" r="8" fill="#F8EDE3" stroke="#C9A96E" stroke-width="1"/>
  <!-- Eye -->
  <circle cx="83" cy="28" r="1.5" fill="#C9A96E"/>
  <!-- Beak -->
  <path d="M88 30 L93 31 L88 33Z" fill="#C9A96E" opacity="0.8"/>
  <!-- Wing upper -->
  <path d="M52 35 Q45 20 30 18 Q35 28 50 35Z" fill="#F0E0CC" stroke="#C9A96E" stroke-width="0.8"/>
  <!-- Wing lower -->
  <path d="M52 38 Q42 30 25 32 Q33 40 52 42Z" fill="#E8D0B8" stroke="#C9A96E" stroke-width="0.8"/>
  <!-- Tail -->
  <path d="M50 40 Q38 44 32 50 Q42 46 50 42Z" fill="#F0E0CC" stroke="#C9A96E" stroke-width="0.8"/>
  <path d="M50 40 Q36 42 28 46 Q38 44 50 42Z" fill="#F8EDE3" stroke="#C9A96E" stroke-width="0.8"/>
  <!-- Olive branch -->
  <path d="M88 33 Q92 38 90 44" stroke="#8FAF6E" stroke-width="1.2" fill="none"/>
  <ellipse cx="88" cy="40" rx="4" ry="2.5" fill="#8FAF6E" opacity="0.8" transform="rotate(-30 88 40)"/>
  <ellipse cx="90" cy="44" rx="3.5" ry="2" fill="#8FAF6E" opacity="0.8" transform="rotate(20 90 44)"/>
</svg>
