<svg viewBox="0 0 120 120" xmlns="http://www.w3.org/2000/svg" fill="none">
  <!-- Main stems -->
  <path d="M10 110 Q30 80 60 60 Q80 48 110 10" stroke="#C9A96E" stroke-width="1.5" fill="none"/>
  <path d="M10 110 Q20 70 40 50 Q55 35 70 10" stroke="#C9A96E" stroke-width="1" fill="none" opacity="0.5"/>
  <!-- Leaves -->
  <ellipse cx="35" cy="82" rx="12" ry="5" fill="#C9A96E" opacity="0.35" transform="rotate(-40 35 82)"/>
  <ellipse cx="55" cy="62" rx="10" ry="4" fill="#C9A96E" opacity="0.35" transform="rotate(-50 55 62)"/>
  <ellipse cx="78" cy="40" rx="10" ry="4" fill="#C9A96E" opacity="0.35" transform="rotate(-55 78 40)"/>
  <ellipse cx="98" cy="22" rx="9" ry="4" fill="#C9A96E" opacity="0.35" transform="rotate(-60 98 22)"/>
  <!-- Small flowers -->
  <circle cx="60" cy="60" r="7" fill="#F8EDE3" stroke="#C9A96E" stroke-width="1"/>
  <circle cx="60" cy="60" r="3" fill="#C9A96E" opacity="0.5"/>
  <circle cx="95" cy="18" r="6" fill="#F8EDE3" stroke="#C9A96E" stroke-width="1"/>
  <circle cx="95" cy="18" r="2.5" fill="#C9A96E" opacity="0.5"/>
  <circle cx="28" cy="90" r="5" fill="#F8EDE3" stroke="#C9A96E" stroke-width="1"/>
  <circle cx="28" cy="90" r="2" fill="#C9A96E" opacity="0.5"/>
  <!-- Flower petals for main flower -->
  <ellipse cx="60" cy="52" rx="3" ry="5" fill="#F0D5B8" opacity="0.7"/>
  <ellipse cx="60" cy="68" rx="3" ry="5" fill="#F0D5B8" opacity="0.7"/>
  <ellipse cx="52" cy="60" rx="5" ry="3" fill="#F0D5B8" opacity="0.7"/>
  <ellipse cx="68" cy="60" rx="5" ry="3" fill="#F0D5B8" opacity="0.7"/>
  <ellipse cx="54" cy="54" rx="3" ry="5" fill="#F0D5B8" opacity="0.5" transform="rotate(-45 54 54)"/>
  <ellipse cx="66" cy="66" rx="3" ry="5" fill="#F0D5B8" opacity="0.5" transform="rotate(-45 66 66)"/>
  <ellipse cx="54" cy="66" rx="3" ry="5" fill="#F0D5B8" opacity="0.5" transform="rotate(45 54 66)"/>
  <ellipse cx="66" cy="54" rx="3" ry="5" fill="#F0D5B8" opacity="0.5" transform="rotate(45 66 54)"/>
  <!-- Dots scatter -->
  <circle cx="45" cy="72" r="1.5" fill="#C9A96E" opacity="0.4"/>
  <circle cx="70" cy="48" r="1.5" fill="#C9A96E" opacity="0.4"/>
  <circle cx="85" cy="32" r="1.5" fill="#C9A96E" opacity="0.4"/>
</svg>
