<svg viewBox="0 0 60 90" xmlns="http://www.w3.org/2000/svg" fill="none">
  <!-- Feather spine -->
  <path d="M30 80 Q32 55 44 28 Q50 14 56 6" stroke="#C4954A" stroke-width="1.2" stroke-linecap="round"/>
  <!-- Feather left barbs -->
  <path d="M34 62 Q42 54 46 44" stroke="#C4954A" stroke-width="0.6" opacity="0.5" stroke-linecap="round"/>
  <path d="M32 70 Q40 62 44 52" stroke="#C4954A" stroke-width="0.6" opacity="0.4" stroke-linecap="round"/>
  <path d="M36 54 Q44 46 48 36" stroke="#C4954A" stroke-width="0.5" opacity="0.4" stroke-linecap="round"/>
  <path d="M38 46 Q46 38 50 28" stroke="#C4954A" stroke-width="0.5" opacity="0.35" stroke-linecap="round"/>
  <path d="M40 38 Q48 30 52 20" stroke="#C4954A" stroke-width="0.5" opacity="0.3" stroke-linecap="round"/>
  <!-- Feather right barbs -->
  <path d="M30 68 Q22 60 20 50" stroke="#C4954A" stroke-width="0.6" opacity="0.4" stroke-linecap="round"/>
  <path d="M32 60 Q24 50 22 40" stroke="#C4954A" stroke-width="0.5" opacity="0.35" stroke-linecap="round"/>
  <path d="M34 52 Q28 42 26 32" stroke="#C4954A" stroke-width="0.5" opacity="0.3" stroke-linecap="round"/>
  <path d="M36 44 Q32 34 30 24" stroke="#C4954A" stroke-width="0.4" opacity="0.25" stroke-linecap="round"/>
  <!-- Tip -->
  <path d="M44 28 Q50 14 56 6 Q54 12 50 18 Q46 26 44 28Z" fill="#C4954A" opacity="0.4"/>
  <!-- Nib -->
  <path d="M30 80 L24 86 L28 78Z" fill="#C4954A" opacity="0.9"/>
  <!-- Ink dot -->
  <circle cx="24" cy="86" r="2.2" fill="#C4954A" opacity="0.65"/>
  <!-- Ink trail dashes -->
  <path d="M24 86 Q34 88 44 85" stroke="#C4954A" stroke-width="0.7" opacity="0.25" stroke-dasharray="3 3" stroke-linecap="round"/>
</svg>
