<svg xmlns="http://www.w3.org/2000/svg" viewBox="0 0 100 100" fill="none">
  <!-- Shadow layer (dark accent) -->
  <path d="M43 11h14v51.5c0 7.7-6.3 14-14 14s-14-6.3-14-14 6.3-14 14-14c1.5 0 2.9.2 4.2.6V35.3C45.8 35.1 44.4 35 43 35c-15.5 0-28 12.5-28 28s12.5 28 28 28 28-12.5 28-28V36.8c5.1 3.6 11.3 5.7 18 5.7V28c-3.6 0-7-1.1-9.8-3-3.9-2.6-6.6-6.6-7.5-11.3L57 11h-4c.6 3.3 2 6.4 4 9H43z" fill="#1a1a1a" opacity="0.4"/>
  <!-- Main gold shape -->
  <path d="M41 9h14v51.5c0 7.7-6.3 14-14 14s-14-6.3-14-14 6.3-14 14-14c1.5 0 2.9.2 4.2.6V33.3C43.8 33.1 42.4 33 41 33c-15.5 0-28 12.5-28 28s12.5 28 28 28 28-12.5 28-28V34.8c5.1 3.6 11.3 5.7 18 5.7V26c-3.6 0-7-1.1-9.8-3-3.9-2.6-6.6-6.6-7.5-11.3L55 9h-4c.6 3.3 2 6.4 4 9H41z" fill="#C9A84C"/>
  <!-- Highlight shimmer -->
  <path d="M55 9h-4c.6 3.3 2 6.4 4 9H41v49.8c1.3.4 2.7.6 4.2.6V19h9c-2-2.6-3.4-5.7-4-9h4.8z" fill="#E8C97A" opacity="0.5"/>
</svg>
