<svg xmlns="http://www.w3.org/2000/svg" viewBox="0 0 100 100" fill="none">
  <path d="M50 8C27.9 8 10 25.9 10 48c0 7.5 2.1 14.6 5.7 20.6L10 92l24.1-5.6C39.8 89.6 44.8 91 50 91c22.1 0 40-17.9 40-40S72.1 8 50 8z" fill="#C9A84C"/>
  <path d="M50 13c-19.3 0-35 15.7-35 35 0 6.7 1.9 13 5.2 18.3l.6 1-3.8 13.8 14.3-3.7 1 .5C37.4 81.1 43.6 83 50 83c19.3 0 35-15.7 35-35S69.3 13 50 13z" fill="#1a1a1a"/>
  <path d="M37.2 31.5c-.9-2-1.8-2-2.7-2.1-.7 0-1.5 0-2.3 0s-2.1.3-3.2 1.5c-1.1 1.2-4.1 4-4.1 9.8s4.2 11.3 4.8 12.1c.6.8 8.1 12.9 20 17.5 9.9 3.9 11.9 3.1 14 2.9 2.1-.2 6.8-2.8 7.7-5.4.9-2.6.9-4.9.6-5.4-.3-.4-1.1-.7-2.3-1.3-1.2-.6-6.8-3.4-7.9-3.7-1-.4-1.8-.6-2.6.6-.8 1.2-3 3.7-3.7 4.5-.7.8-1.4.9-2.6.3-1.2-.6-5-1.8-9.5-5.9-3.5-3.1-5.9-7-6.6-8.2-.7-1.2-.1-1.8.5-2.4.6-.6 1.2-1.4 1.8-2.1.6-.7.8-1.2 1.2-2 .4-.8.2-1.5-.1-2.1-.3-.6-2.6-6.4-3.6-8.7z" fill="#C9A84C"/>
</svg>
